<?xml version="1.0" encoding="UTF-8"?>
<svg width="512" height="512" version="1.1" viewBox="0 0 512 512" xmlns="http://www.w3.org/2000/svg"><path d="M256 16c0 0-144 208-144 320 0 88.36 64.47 160 144 160s144-71.64 144-160C400 224 256 16 256 16zm0 416c-44.18 0-80-38.8-80-88 0-8.84 6.26-16 14-16s14 7.16 14 16c0 30.88 23.3 56 52 56 7.74 0 14 7.16 14 16s-6.26 16-14 16zm-160-64c-8 0-16-4-16-12 0-44 20-84 32-108 4-8 12-12 20-8s12 12 8 20c-12 24-28 56-28 96 0 4-8 12-16 12zm352 0c-8 0-16-8-16-12 0-40-16-72-28-96-4-8-4-16 8-20s16 0 20 8c12 24 32 64 32 108 0 8-8 12-16 12z" fill="#fff"/></svg>
