<?xml version="1.0" encoding="UTF-8"?>
<svg width="512" height="512" version="1.1" viewBox="0 0 512 512" xmlns="http://www.w3.org/2000/svg"><path d="M256 32c-8.8 0-16 7.2-16 16v48.6c-36.5 5.1-69.8 20.3-97 43L108 104.7c-6.2-6.2-16.4-6.2-22.6 0s-6.2 16.4 0 22.6l34.9 34.9c-22.7 27.2-37.9 60.5-43 97H32c-8.8 0-16 7.2-16 16s7.2 16 16 16h45.3c5.1 36.5 20.3 69.8 43 97l-34.9 34.9c-6.2 6.2-6.2 16.4 0 22.6s16.4 6.2 22.6 0l34.9-34.9c27.2 22.7 60.5 37.9 97 43V480c0 8.8 7.2 16 16 16s16-7.2 16-16v-45.3c36.5-5.1 69.8-20.3 97-43l34.9 34.9c6.2 6.2 16.4 6.2 22.6 0s6.2-16.4 0-22.6l-34.9-34.9c22.7-27.2 37.9-60.5 43-97H480c8.8 0 16-7.2 16-16s-7.2-16-16-16h-45.3c-5.1-36.5-20.3-69.8-43-97l34.9-34.9c6.2-6.2 6.2-16.4 0-22.6s-16.4-6.2-22.6 0l-34.9 34.9c-27.2-22.7-60.5-37.9-97-43V48c0-8.8-7.2-16-16-16zm0 128a96 96 0 1 1 0 192 96 96 0 0 1 0-192zm-40 80a16 16 0 1 0 0 32 16 16 0 0 0 0-32zm64-16a16 16 0 1 0 0 32 16 16 0 0 0 0-32zm-32 40a16 16 0 1 0 0 32 16 16 0 0 0 0-32z" fill="#fff"/></svg>
